<svg viewBox="0 0 100 100" xmlns="http://www.w3.org/2000/svg" role="img" aria-label="baseball">
  <defs>
    <radialGradient id="ball" cx="38%" cy="32%" r="75%">
      <stop offset="0%" stop-color="#ffffff"/>
      <stop offset="68%" stop-color="#f1f1ea"/>
      <stop offset="100%" stop-color="#d4d4ca"/>
    </radialGradient>
  </defs>
  <rect width="100" height="100" rx="22" fill="#050510"/>
  <g transform="translate(14,14) scale(0.72)">
    <circle cx="50" cy="50" r="45" fill="url(#ball)" stroke="#c4c4ba" stroke-width="1.5"/>
    <path d="M27,12 C33,30 33,70 27,88" fill="none" stroke="#e23744" stroke-width="2.2" stroke-linecap="round"/>
    <path d="M73,12 C67,30 67,70 73,88" fill="none" stroke="#e23744" stroke-width="2.2" stroke-linecap="round"/>
    <g stroke="#e23744" stroke-width="1.5" stroke-linecap="round">
      <line x1="23.6" y1="24" x2="30.4" y2="20"/>
      <line x1="27.1" y1="33" x2="33.9" y2="29"/>
      <line x1="29.1" y1="42" x2="35.9" y2="38"/>
      <line x1="29.6" y1="52" x2="36.4" y2="48"/>
      <line x1="29.1" y1="61" x2="35.9" y2="57"/>
      <line x1="27.1" y1="70" x2="33.9" y2="66"/>
      <line x1="23.6" y1="79" x2="30.4" y2="75"/>
      <line x1="69.6" y1="20" x2="76.4" y2="24"/>
      <line x1="66.1" y1="29" x2="72.9" y2="33"/>
      <line x1="64.1" y1="38" x2="70.9" y2="42"/>
      <line x1="63.6" y1="48" x2="70.4" y2="52"/>
      <line x1="64.1" y1="57" x2="70.9" y2="61"/>
      <line x1="66.1" y1="66" x2="72.9" y2="70"/>
      <line x1="69.6" y1="75" x2="76.4" y2="79"/>
    </g>
  </g>
</svg>
