<svg viewBox="0 0 120 120" xmlns="http://www.w3.org/2000/svg" role="img" aria-label="baseball">
  <defs>
    <radialGradient id="sphere" cx="38%" cy="32%" r="72%">
      <stop offset="0%" stop-color="#ffffff"/>
      <stop offset="42%" stop-color="#f5f5ef"/>
      <stop offset="78%" stop-color="#deded4"/>
      <stop offset="100%" stop-color="#b3b3a6"/>
    </radialGradient>
    <radialGradient id="ao" cx="50%" cy="50%" r="50%">
      <stop offset="62%" stop-color="#000000" stop-opacity="0"/>
      <stop offset="100%" stop-color="#1a1208" stop-opacity="0.42"/>
    </radialGradient>
    <radialGradient id="spec" cx="50%" cy="50%" r="50%">
      <stop offset="0%" stop-color="#ffffff" stop-opacity="0.95"/>
      <stop offset="100%" stop-color="#ffffff" stop-opacity="0"/>
    </radialGradient>
    <linearGradient id="seam" x1="0" y1="0" x2="0" y2="1">
      <stop offset="0%" stop-color="#e8404d"/>
      <stop offset="50%" stop-color="#d22f3b"/>
      <stop offset="100%" stop-color="#a81f2a"/>
    </linearGradient>
    <filter id="soft" x="-50%" y="-50%" width="200%" height="200%"><feGaussianBlur stdDeviation="2.2"/></filter>
    <filter id="ds" x="-40%" y="-40%" width="180%" height="180%">
      <feDropShadow dx="0" dy="3.2" stdDeviation="3.4" flood-color="#000000" flood-opacity="0.55"/>
    </filter>
  </defs>
  <rect width="120" height="120" rx="26" fill="#070714"/>
  <g transform="translate(60,60) scale(0.84) translate(-60,-60)" filter="url(#ds)">
    <circle cx="60" cy="60" r="50" fill="url(#sphere)"/>
    <g stroke="url(#seam)" stroke-linecap="round" fill="none">
      <path d="M36,20 C44,40 44,80 36,100" stroke-width="2.6"/>
      <path d="M84,20 C76,40 76,80 84,100" stroke-width="2.6"/>
    </g>
    <g stroke="#c8313c" stroke-width="1.8" stroke-linecap="round">
      <line x1="32.4" y1="30.2" x2="39.6" y2="25.8"/><line x1="36.4" y1="42.2" x2="43.6" y2="37.8"/>
      <line x1="39.4" y1="54.2" x2="46.6" y2="49.8"/><line x1="40.4" y1="62.2" x2="47.6" y2="57.8"/>
      <line x1="39.4" y1="70.2" x2="46.6" y2="65.8"/><line x1="36.4" y1="82.2" x2="43.6" y2="77.8"/>
      <line x1="32.4" y1="94.2" x2="39.6" y2="89.8"/>
      <line x1="80.4" y1="25.8" x2="87.6" y2="30.2"/><line x1="76.4" y1="37.8" x2="83.6" y2="42.2"/>
      <line x1="73.4" y1="49.8" x2="80.6" y2="54.2"/><line x1="72.4" y1="57.8" x2="79.6" y2="62.2"/>
      <line x1="73.4" y1="65.8" x2="80.6" y2="70.2"/><line x1="76.4" y1="77.8" x2="83.6" y2="82.2"/>
      <line x1="80.4" y1="89.8" x2="87.6" y2="94.2"/>
    </g>
    <circle cx="60" cy="60" r="50" fill="url(#ao)"/>
    <ellipse cx="44" cy="40" rx="17" ry="12" fill="url(#spec)" filter="url(#soft)"/>
  </g>
</svg>
